<svg width="50" height="38" viewBox="0 0 50 38" fill="none" xmlns="http://www.w3.org/2000/svg">
<path d="M36.17 0H13.35C12.8198 0 12.39 0.429807 12.39 0.96V36.18C12.39 36.7102 12.8198 37.14 13.35 37.14H36.17C36.7002 37.14 37.13 36.7102 37.13 36.18V0.96C37.13 0.429807 36.7002 0 36.17 0Z" fill="#FA6166"/>
<path d="M1 32.19H9C9.26522 32.19 9.51957 32.0846 9.70711 31.8971C9.89464 31.7096 10 31.4552 10 31.19V5.92C9.97985 5.66888 9.86566 5.43463 9.68026 5.26406C9.49486 5.0935 9.25192 4.99919 9 5H1C0.734784 5 0.48043 5.10536 0.292893 5.29289C0.105357 5.48043 0 5.73478 0 6L0 31.3C0 31.5652 0.105357 31.8196 0.292893 32.0071C0.48043 32.1946 0.734784 32.3 1 32.3V32.19ZM39.63 5.92V31.22C39.63 31.4852 39.7354 31.7396 39.9229 31.9271C40.1104 32.1146 40.3648 32.22 40.63 32.22H48.63C48.8952 32.22 49.1496 32.1146 49.3371 31.9271C49.5246 31.7396 49.63 31.4852 49.63 31.22V5.92C49.63 5.65478 49.5246 5.40043 49.3371 5.21289C49.1496 5.02535 48.8952 4.92 48.63 4.92H40.63C40.3648 4.92 40.1104 5.02535 39.9229 5.21289C39.7354 5.40043 39.63 5.65478 39.63 5.92Z" fill="#555555"/>
</svg>
